<svg xmlns="http://www.w3.org/2000/svg" width="500" height="518" version="1.1"><path fill="#FEFEFE" d="M0 0h500v518H0V0Z"/><path fill="#024CE0" d="M149.805 179.898C158.9 184.462 164.782 191.401 168 201c.441 3.383.441 3.383.563 7.125l.19 3.695c-.841 9.533-9.764 17.778-16.208 24.152l-2.471 2.493a1960.4 1960.4 0 0 1-8.035 8.027l-5.622 5.634a4938.534 4938.534 0 0 1-11.767 11.745 3947.314 3947.314 0 0 0-13.535 13.543A4496.26 4496.26 0 0 1 99.43 289.11a2543.98 2543.98 0 0 0-6.95 6.957c-2.58 2.59-5.171 5.165-7.767 7.738l-2.277 2.302c-7.39 7.273-14.608 11.937-25.186 12.144-9.278-.178-15.31-3.148-22.008-9.605-6.096-7.19-7.785-15.003-7.906-24.247 1.827-9.352 7.426-15.895 14.028-22.424l2.515-2.547c2.727-2.754 5.472-5.49 8.219-8.224 1.431-1.434 2.86-2.87 4.29-4.306 4.49-4.508 8.99-9.004 13.5-13.492 4.629-4.606 9.237-9.232 13.836-13.869 3.97-4.002 7.953-7.992 11.944-11.972a1707.96 1707.96 0 0 0 7.104-7.123c2.639-2.659 5.296-5.298 7.959-7.932l2.31-2.352c10.414-10.197 22.545-15.711 36.764-10.259Z"/><path fill="#014CE0" d="m330 358 1.996 1.316c5.082 3.836 8.223 8.58 10.004 14.684 1.262 10.114.335 17.229-5 26-2.604 3.27-5.488 6.193-8.455 9.134L326 411.715c-2.285 2.311-4.58 4.61-6.882 6.904-1.93 1.926-3.852 3.86-5.775 5.793-4.542 4.567-9.096 9.12-13.659 13.665a2827.608 2827.608 0 0 0-13.999 14.056 2817.966 2817.966 0 0 1-12.084 12.128 1339.686 1339.686 0 0 0-7.188 7.219 1088.41 1088.41 0 0 1-8.052 8.033l-2.339 2.391c-6.939 6.783-14.885 11.115-24.71 11.659-9.272-.507-16.006-4.985-22.312-11.563-6.524-8.584-6.804-16.635-6-27 3.165-13.445 21.005-26.205 30.371-35.61l2.512-2.523c4.378-4.4 8.76-8.796 13.145-13.19 4.508-4.52 9.004-9.05 13.498-13.584 3.48-3.505 6.967-7.001 10.458-10.495 1.661-1.666 3.32-3.336 4.974-5.01 2.317-2.341 4.648-4.67 6.981-6.997l2.03-2.069C299.183 353.439 314.574 347.743 330 358ZM302.625 28.688c7.242 3.463 11.893 8.249 15.457 15.519 2.402 7.31 2.218 17.145-1.02 24.168-7.68 12.292-19.587 22.33-29.757 32.523l-2.557 2.565c-4.453 4.468-8.909 8.934-13.368 13.397-4.594 4.6-9.179 9.209-13.762 13.82-3.54 3.558-7.086 7.11-10.634 10.66a2405.502 2405.502 0 0 0-5.074 5.097c-2.359 2.377-4.727 4.743-7.098 7.107l-2.091 2.12c-7.955 7.887-14.631 10.675-25.864 10.719-8.3-.193-14.041-3.151-19.732-9.07-6.05-7.682-7.56-14.963-7.754-24.625 1.627-9.54 7.336-16.126 14.04-22.73l2.53-2.552c2.742-2.758 5.501-5.499 8.262-8.238 1.924-1.922 3.845-3.848 5.766-5.773 4.02-4.024 8.049-8.038 12.084-12.045 4.65-4.617 9.283-9.25 13.907-13.892 4.471-4.487 8.954-8.963 13.441-13.433 1.9-1.893 3.795-3.79 5.688-5.69 2.651-2.656 5.315-5.3 7.982-7.94l2.344-2.363c10.79-10.604 22.396-14.813 37.21-9.344Z"/><path fill="#E9456B" d="M450.262 118.285c5.992 4.098 10.436 9.808 12.738 16.715.93 10.818.851 20.027-6 29-3.819 4.243-7.884 8.217-12.027 12.14-3.314 3.152-6.316 6.476-9.292 9.945-2.588 2.948-5.377 5.675-8.181 8.415-3.43 3.388-6.823 6.752-9.938 10.438-18.95 22.061-18.95 22.061-31.16 23.48-9.33.346-16.252-1.258-24.152-6.106-6.645-6.829-11.3-14.904-11.813-24.5.556-15.746 12.096-25.36 22.563-35.812l1.6-1.605c2.098-2.102 4.204-4.196 6.318-6.282 1.908-1.936 3.693-3.92 5.457-5.988 3.521-4.122 7.357-7.888 11.213-11.692 2.848-2.822 5.57-5.683 8.162-8.745 12.522-14.514 27.144-19.272 44.512-9.403Z"/><path fill="#014CE0" d="M441.012 352.918c2.51 1.188 4.715 2.49 6.988 4.082l2.02 1.387c5.527 4.247 8.608 9.805 9.98 16.613.88 8.906-.195 17.206-5.889 24.38-9.221 9.889-18.749 19.48-28.3 29.05a2360.172 2360.172 0 0 0-7.513 7.57c-1.952 1.971-3.91 3.935-5.871 5.897a1098.32 1098.32 0 0 0-4.094 4.136c-8.075 8.046-15.737 14.196-27.583 14.342-8.1-.157-14.543-1.996-20.563-7.563A92.181 92.181 0 0 1 357 449l-1.54-1.82c-3.606-5.14-3.944-10.145-4.022-16.243l-.045-2.29c.159-8.749 4.173-14.826 10.258-20.816l1.677-1.698a907.53 907.53 0 0 1 5.469-5.461l3.826-3.838c2.667-2.673 5.34-5.338 8.02-7.998a2110.46 2110.46 0 0 0 10.22-10.235c2.629-2.643 5.266-5.276 7.907-7.906 1.258-1.256 2.513-2.514 3.765-3.775a811.865 811.865 0 0 1 5.296-5.269l1.537-1.561c8.715-8.516 19.95-10.736 31.644-7.172Z"/><path fill="#014BE0" d="M156.816 62.45c6.488 4.606 11.446 10.19 13.934 17.862L171 83l.227 2.11c.526 8.698-2.205 16.504-7.855 23.165-3.268 3.612-6.726 7.028-10.196 10.444-1.27 1.272-2.54 2.546-3.808 3.82a1393.477 1393.477 0 0 1-7.976 7.927 1272.666 1272.666 0 0 0-10.143 10.14c-2.612 2.63-5.238 5.245-7.868 7.855a754.974 754.974 0 0 0-3.735 3.741c-7.555 7.601-14.464 14.26-25.623 15.33-7.264-.063-13.018-.204-19.023-4.532l-2.688-1.813c-8.045-7.61-10.538-16.015-10.906-26.902 2.083-11.522 10.477-18.922 18.418-26.808 1.27-1.276 2.54-2.553 3.808-3.83 2.65-2.662 5.31-5.315 7.976-7.962 3.4-3.377 6.775-6.779 10.143-10.188 2.612-2.638 5.238-5.26 7.868-7.88 1.25-1.248 2.495-2.501 3.735-3.758 11.994-12.133 26.455-21.324 43.462-11.41Z"/><path fill="#024CE0" d="m193.438 355.375 2.233.045c8.291.372 14.117 3.317 20.204 8.892 6.595 7.328 7.597 13.61 7.852 23.297-1.204 11.926-10.025 20.578-18.118 28.543a2799.238 2799.238 0 0 0-3.332 3.343 1241.244 1241.244 0 0 1-6.97 6.925 1143.421 1143.421 0 0 0-8.848 8.842c-2.285 2.3-4.582 4.586-6.883 6.87a693.207 693.207 0 0 0-3.257 3.261c-8.636 8.682-16.45 14.842-28.944 15.92-6.512-.087-12.669-2.69-18.188-6-6.586-6.963-11.128-14.92-11.75-24.563.6-12.843 9.556-21.627 18.208-30.121a2702.14 2702.14 0 0 0 3.407-3.41c2.365-2.365 4.74-4.72 7.123-7.066 3.036-2.991 6.05-6.004 9.057-9.024 2.337-2.344 4.684-4.678 7.034-7.008a966.116 966.116 0 0 0 3.336-3.329c15.809-15.817 15.809-15.817 27.835-15.417ZM151 301c6.675 4.613 11.738 10.093 14 18 1.075 8.435.563 15.747-4 23-5.34 6.778-11.613 12.81-17.684 18.922l-1.521 1.534a5357.145 5357.145 0 0 1-7.964 8.008c-2.726 2.738-5.44 5.486-8.153 8.238a1683.003 1683.003 0 0 1-6.339 6.377 621.958 621.958 0 0 0-3.003 3.038c-8.343 8.49-15.226 13.961-27.523 14.195-7.916.026-12.61-1.48-18.5-6.687L68 393l-2.625-2.75c-4.97-6.178-6.023-13.512-5.777-21.27 1.843-13.654 15.01-23.745 24.187-32.968l2.729-2.746a5200.35 5200.35 0 0 1 5.67-5.69c2.406-2.412 4.802-4.832 7.197-7.255 2.316-2.339 4.642-4.667 6.967-6.997l2.573-2.61C120.869 298.81 134.98 291.97 151 301ZM372.75 58.781c7.683-.392 12.8 1.081 19.25 5.219l3.25 2.063c5.77 5.275 9.083 13.232 9.438 20.937-1.054 13.426-8.415 21.787-17.567 30.809-1.176 1.18-2.35 2.362-3.524 3.544-2.451 2.461-4.914 4.91-7.386 7.349-3.145 3.105-6.258 6.24-9.362 9.387-2.417 2.442-4.85 4.866-7.287 7.286a533.275 533.275 0 0 0-3.445 3.463c-7.904 7.992-16.038 14.952-27.805 15.662-9.656-.662-17.2-4.944-23.625-12.063-5.534-7.994-6.488-14.762-5.687-24.437 3.056-15.538 21.778-28.995 32.425-39.666 2.708-2.717 5.405-5.445 8.102-8.174 1.743-1.75 3.487-3.498 5.23-5.246l2.407-2.443c8.01-7.98 14.202-12.784 25.586-13.69Z"/><path fill="#E9466B" d="M303 296c15 0 15 0 18.652 3.063 1.221 1.914 1.221 1.914 2.286 3.937l1.24 2.023c.99 1.63 1.913 3.3 2.822 4.977l1-14h16v43c-15 0-15 0-18.652-3.281-1.221-2.051-1.221-2.051-2.286-4.219l-1.24-2.168c-.991-1.75-1.914-3.538-2.822-5.332v16h-17v-44Z"/><path fill="#0A51E1" d="m367 248 1-2h10c.074 5.16.129 10.319.165 15.479.015 1.753.035 3.507.061 5.26.037 2.527.054 5.054.067 7.581.015.779.03 1.557.047 2.359.002 5.498-.968 9.715-4.805 13.93-5.195 4.024-8.594 5.876-15.156 5.704-5.588-.735-9.306-3.025-12.879-7.313-1.5-3-1.5-3-1.5-7 1.603-.081 3.208-.14 4.813-.188l2.707-.105c2.96.35 3.547 1.137 5.48 3.293 2.957.583 2.957.583 6 0 3.049-2.307 4.457-4.202 5-8l-1.703 1.469c-3.902 2.6-7.777 2.242-12.297 1.531-4.593-1.737-7.319-3.957-10-8.063-2.117-6.31-2.193-13.464.688-19.437 6.527-7.056 13.65-10.614 22.312-4.5Z"/><path fill="#0E54E1" d="M273 235c6.934-.098 6.934-.098 9 0 1 1 1 1 1.12 2.79l-.006 2.363v2.669l-.016 2.9-.005 2.956c-.005 3.128-.018 6.256-.03 9.385-.006 2.115-.01 4.23-.014 6.345-.011 5.197-.028 10.395-.049 15.592h-11v-2l-1.668.969c-4.316 1.908-8.726 1.767-13.332 1.031-4.28-2.167-6.514-5.184-8.938-9.25-1.556-5.493-2.285-10.582-.183-16.027 2.663-4.72 5.885-8.068 11.121-9.723 3.082-.454 5.94-.628 9 0l4 3 1-13Z"/><path fill="#0B52E1" d="M190.75 236.125c5.506 3.176 10.644 6.897 13.25 12.875a93.819 93.819 0 0 1 0 5c-3.707.283-7.303.455-11 0-2-2.375-2-2.375-3-5-4.467-2.978-8.77-2.848-14-2-2.973 1.667-3.358 2.773-5 6-.958 4.885-.48 8.102 1.875 12.5 2.135 2.512 2.897 3.375 6.113 3.703 4.827.097 8.176.069 12.012-3.203l1.188-2.688C194 261 194 261 196.405 260.68A92.87 92.87 0 0 1 204 261c-.27 6.498-2.557 10.302-7 15-5.57 4.844-11.985 4.849-19.102 4.516-7.102-.94-10.977-4.102-15.335-9.579-3.682-6.922-5.072-13.444-2.946-21.183 2.72-6.176 7.758-10.991 13.801-13.93 5.728-1.828 11.634-1.408 17.332.301Z"/><path fill="#0951E1" d="M230 245c5.244 1.812 9.162 5.05 12.117 9.793 1.805 4.512 1.406 9.446.883 14.207-1.75 3.5-1.75 3.5-4 6l-1.938 2.25c-4.64 3.938-9.473 4.189-15.34 4.063-4.25-.488-6.326-1.68-9.722-4.313-4.567-5.89-5.467-10.608-5.414-17.914.645-4.807 2.855-7.882 6.414-11.086 5.435-3.936 10.514-3.643 17-3Z"/><path fill="#E9486D" d="M377.5 306.188c4.361 3.161 7.08 5.97 9.5 10.812v9h-24l2 3c3.042.333 3.042.333 6 0l1-1c2.353-.073 4.708-.084 7.063-.063l3.91.028L386 328c-1.717 5.766-3.67 7.877-8.703 11.086-3.26 1.298-6.173 1.254-9.672 1.289l-3.898.086c-5.431-.672-8.436-3.03-12.04-7.024-3.654-5.279-3.278-11.243-2.687-17.437 2.16-4.479 4.93-7.182 9-10 6.122-2.04 13.42-1.876 19.5.188Z"/><path fill="#E9496E" d="m406.25 304.688 2.277-.088c5.303-.06 8.28.874 12.473 4.4 2 3 2 3 2 7-2.438.027-4.875.047-7.313.063l-2.091.025c-3.144.015-5.59-.086-8.596-1.088v3l3.563-.188c5.623.02 9.758 1.595 13.875 5.5 1.922 3.307 2.178 4.918 1.562 8.688-2.087 4.256-4.262 6.884-8.813 8.531-7.338 1.573-14.712 1.381-21.187-2.531-2.438-2.438-2.438-2.438-4-5v-4h15v2l3-1 1-2-2.887-.227c-11.534-1.209-11.534-1.209-14.488-4.336-2.036-4.306-2.872-7.767-1.625-12.437 4.416-5.677 9.524-6.228 16.25-6.313Z"/><path fill="#1055E1" d="M328 245c4.55 1.517 6.882 3.475 9.19 7.698 1.72 4.891 1.211 10.123 1.06 15.24l-.055 3.517A817.135 817.135 0 0 1 338 280h-11l-.184-4.996-.253-6.442-.12-3.298-.127-3.135-.11-2.904c.036-2.196.036-2.196-1.206-3.225-2.958-.25-2.958-.25-6 0-2.521 2.521-2.294 3.512-2.414 7.008l-.117 2.988-.094 3.129-.117 3.152c-.095 2.574-.177 5.149-.258 7.723h-11v-34h10l1 2 2.063-1.5c3.655-1.867 5.87-1.928 9.937-1.5Z"/><path fill="#E9496E" d="M429 298h15v8h6v10h-6l1 13 5 1v10c-5.662 1.887-11.11 1.911-16.5-.688-3.797-3.511-4.443-6.14-4.695-11.3.013-1.442.037-2.883.07-4.325l.027-2.244c.024-1.814.06-3.629.098-5.443h-4v-10h4v-8Z"/><path fill="#0850E0" d="M289 246h10v34h-10v-34Z"/><path fill="#F5F7FD" d="M228 254c2.875 2.063 2.875 2.063 5 5 .662 4.116.395 6.227-1.5 9.938-3.029 2.498-4.747 2.811-8.594 2.539C221 271 221 271 218.5 269c-2.089-4.177-2.164-6.35-1.5-11 3.25-3.823 6.058-4.927 11-4Z"/><path fill="#F1F5FD" d="M265.625 254c3.33.987 4.336 1.352 6.375 4 .678 3.07.583 5.917 0 9-2.063 2.625-2.063 2.625-5 4-3.625.063-3.625.063-7-1-2.353-2.656-2.92-4.517-3.5-8 .5-3 .5-3 2.563-5.938C262 254 262 254 265.625 254Z"/><path fill="#F4F7FD" d="M363 255c3.363 2.486 4.8 3.914 5.563 8.063C368 266 368 266 366.5 268.375c-3.769 2.45-6.043 2.19-10.5 1.625-2.918-2.28-2.978-3.826-3.438-7.5.438-3.5.438-3.5 2.063-5.938 3.132-2.06 4.69-2.239 8.375-1.562Z"/><path fill="#1056E2" d="M293.938 232.75C297 233 297 233 300 235c.4 3.13.521 5.13-1.125 7.875-2.786 1.672-4.695 1.589-7.875 1.125-1.938-1.688-1.938-1.688-3-4 .319-4.465 1.159-6.843 5.938-7.25Z"/><path fill="#FAD8E0" d="m397 326 12 2-1 3h-3v-2h-15v-1h7v-2Z"/><path fill="#F9D3DC" d="m371 317 1 3h-9l1-3c2.667-1.333 4.167-.671 7 0Z"/><path fill="#FCEBEF" d="M364 327h10c-3 3-3 3-6.188 3.188L365 330l-1-3Z"/><path fill="#FCE8EC" d="m405 315 7 1v2h-7v-3Z"/></svg>